<mxfile host="65bd71144e" pages="2">
    <diagram id="DkQuCo6SiyUzNxwRenOB" name="S3 Example">
        <mxGraphModel dx="687" dy="1083" grid="1" gridSize="10" guides="1" tooltips="1" connect="1" arrows="1" fold="1" page="1" pageScale="1" pageWidth="1169" pageHeight="827" math="0" shadow="0">
            <root>
                <mxCell id="0"/>
                <mxCell id="1" parent="0"/>
                <mxCell id="YUtYSmxucx9Gz2Tn0nrr-7" style="edgeStyle=orthogonalEdgeStyle;rounded=0;orthogonalLoop=1;jettySize=auto;html=1;fontSize=12;" parent="1" source="YUtYSmxucx9Gz2Tn0nrr-1" target="YUtYSmxucx9Gz2Tn0nrr-8" edge="1">
                    <mxGeometry relative="1" as="geometry">
                        <mxPoint x="500" y="249" as="targetPoint"/>
                        <Array as="points">
                            <mxPoint x="460" y="240"/>
                            <mxPoint x="460" y="240"/>
                        </Array>
                    </mxGeometry>
                </mxCell>
                <mxCell id="YUtYSmxucx9Gz2Tn0nrr-11" value="invocation" style="edgeLabel;html=1;align=center;verticalAlign=middle;resizable=0;points=[];fontSize=12;" parent="YUtYSmxucx9Gz2Tn0nrr-7" vertex="1" connectable="0">
                    <mxGeometry x="-0.1737" y="-1" relative="1" as="geometry">
                        <mxPoint x="9" as="offset"/>
                    </mxGeometry>
                </mxCell>
                <mxCell id="YUtYSmxucx9Gz2Tn0nrr-1" value="Amazon S3 Bucket" style="sketch=0;outlineConnect=0;fontColor=#232F3E;gradientColor=none;fillColor=#3F8624;strokeColor=none;dashed=0;verticalLabelPosition=bottom;verticalAlign=top;align=center;html=1;fontSize=12;fontStyle=0;aspect=fixed;pointerEvents=1;shape=mxgraph.aws4.bucket;" parent="1" vertex="1">
                    <mxGeometry x="352.5" y="210" width="75" height="78" as="geometry"/>
                </mxCell>
                <mxCell id="YUtYSmxucx9Gz2Tn0nrr-3" style="edgeStyle=orthogonalEdgeStyle;rounded=0;orthogonalLoop=1;jettySize=auto;html=1;" parent="1" source="YUtYSmxucx9Gz2Tn0nrr-4" target="YUtYSmxucx9Gz2Tn0nrr-1" edge="1">
                    <mxGeometry relative="1" as="geometry">
                        <mxPoint x="194.4545454545455" y="249" as="sourcePoint"/>
                    </mxGeometry>
                </mxCell>
                <mxCell id="YUtYSmxucx9Gz2Tn0nrr-5" value="&lt;font style=&quot;font-size: 12px;&quot;&gt;upload&lt;/font&gt;" style="edgeLabel;html=1;align=center;verticalAlign=middle;resizable=0;points=[];" parent="YUtYSmxucx9Gz2Tn0nrr-3" vertex="1" connectable="0">
                    <mxGeometry x="-0.3108" y="-1" relative="1" as="geometry">
                        <mxPoint x="12" y="-1" as="offset"/>
                    </mxGeometry>
                </mxCell>
                <mxCell id="YUtYSmxucx9Gz2Tn0nrr-4" value="Translation File" style="strokeWidth=2;html=1;shape=mxgraph.flowchart.document2;whiteSpace=wrap;size=0.25;" parent="1" vertex="1">
                    <mxGeometry x="110" y="219" width="100" height="60" as="geometry"/>
                </mxCell>
                <mxCell id="YUtYSmxucx9Gz2Tn0nrr-6" value="Amazon Translate" style="sketch=0;points=[[0,0,0],[0.25,0,0],[0.5,0,0],[0.75,0,0],[1,0,0],[0,1,0],[0.25,1,0],[0.5,1,0],[0.75,1,0],[1,1,0],[0,0.25,0],[0,0.5,0],[0,0.75,0],[1,0.25,0],[1,0.5,0],[1,0.75,0]];outlineConnect=0;fontColor=#232F3E;gradientColor=#4AB29A;gradientDirection=north;fillColor=#116D5B;strokeColor=#ffffff;dashed=0;verticalLabelPosition=bottom;verticalAlign=top;align=center;html=1;fontSize=12;fontStyle=0;aspect=fixed;shape=mxgraph.aws4.resourceIcon;resIcon=mxgraph.aws4.translate;" parent="1" vertex="1">
                    <mxGeometry x="557" y="400" width="78" height="78" as="geometry"/>
                </mxCell>
                <mxCell id="YUtYSmxucx9Gz2Tn0nrr-10" style="edgeStyle=orthogonalEdgeStyle;rounded=0;orthogonalLoop=1;jettySize=auto;html=1;fontSize=12;" parent="1" source="YUtYSmxucx9Gz2Tn0nrr-8" target="YUtYSmxucx9Gz2Tn0nrr-6" edge="1">
                    <mxGeometry relative="1" as="geometry"/>
                </mxCell>
                <mxCell id="YUtYSmxucx9Gz2Tn0nrr-12" value="translation" style="edgeLabel;html=1;align=center;verticalAlign=middle;resizable=0;points=[];fontSize=12;" parent="YUtYSmxucx9Gz2Tn0nrr-10" vertex="1" connectable="0">
                    <mxGeometry x="-0.1607" y="1" relative="1" as="geometry">
                        <mxPoint x="-1" y="15" as="offset"/>
                    </mxGeometry>
                </mxCell>
                <mxCell id="YUtYSmxucx9Gz2Tn0nrr-13" style="edgeStyle=orthogonalEdgeStyle;rounded=0;orthogonalLoop=1;jettySize=auto;html=1;fontSize=12;" parent="1" source="YUtYSmxucx9Gz2Tn0nrr-8" target="YUtYSmxucx9Gz2Tn0nrr-9" edge="1">
                    <mxGeometry relative="1" as="geometry"/>
                </mxCell>
                <mxCell id="YUtYSmxucx9Gz2Tn0nrr-14" value="message handover" style="edgeLabel;html=1;align=center;verticalAlign=middle;resizable=0;points=[];fontSize=12;" parent="YUtYSmxucx9Gz2Tn0nrr-13" vertex="1" connectable="0">
                    <mxGeometry x="0.1879" y="-1" relative="1" as="geometry">
                        <mxPoint x="-13" y="-1" as="offset"/>
                    </mxGeometry>
                </mxCell>
                <mxCell id="002L5xnM9x6XCHWZu87V-1" style="edgeStyle=orthogonalEdgeStyle;rounded=0;orthogonalLoop=1;jettySize=auto;html=1;fontSize=12;startArrow=none;startFill=0;" parent="1" source="YUtYSmxucx9Gz2Tn0nrr-8" target="YUtYSmxucx9Gz2Tn0nrr-1" edge="1">
                    <mxGeometry relative="1" as="geometry">
                        <Array as="points">
                            <mxPoint x="440" y="260"/>
                            <mxPoint x="440" y="260"/>
                        </Array>
                    </mxGeometry>
                </mxCell>
                <mxCell id="002L5xnM9x6XCHWZu87V-2" value="read message" style="edgeLabel;html=1;align=center;verticalAlign=middle;resizable=0;points=[];fontSize=12;" parent="002L5xnM9x6XCHWZu87V-1" vertex="1" connectable="0">
                    <mxGeometry x="-0.2742" relative="1" as="geometry">
                        <mxPoint x="-10" as="offset"/>
                    </mxGeometry>
                </mxCell>
                <mxCell id="YUtYSmxucx9Gz2Tn0nrr-8" value="Amazon S3" style="sketch=0;points=[[0,0,0],[0.25,0,0],[0.5,0,0],[0.75,0,0],[1,0,0],[0,1,0],[0.25,1,0],[0.5,1,0],[0.75,1,0],[1,1,0],[0,0.25,0],[0,0.5,0],[0,0.75,0],[1,0.25,0],[1,0.5,0],[1,0.75,0]];outlineConnect=0;fontColor=#232F3E;gradientColor=#F78E04;gradientDirection=north;fillColor=#D05C17;strokeColor=#ffffff;dashed=0;verticalLabelPosition=bottom;verticalAlign=top;align=center;html=1;fontSize=12;fontStyle=0;aspect=fixed;shape=mxgraph.aws4.resourceIcon;resIcon=mxgraph.aws4.lambda;" parent="1" vertex="1">
                    <mxGeometry x="557" y="210" width="78" height="78" as="geometry"/>
                </mxCell>
                <mxCell id="YUtYSmxucx9Gz2Tn0nrr-18" style="edgeStyle=orthogonalEdgeStyle;rounded=0;orthogonalLoop=1;jettySize=auto;html=1;fontSize=12;" parent="1" source="YUtYSmxucx9Gz2Tn0nrr-9" target="YUtYSmxucx9Gz2Tn0nrr-17" edge="1">
                    <mxGeometry relative="1" as="geometry"/>
                </mxCell>
                <mxCell id="YUtYSmxucx9Gz2Tn0nrr-19" value="message delivery" style="edgeLabel;html=1;align=center;verticalAlign=middle;resizable=0;points=[];fontSize=12;" parent="YUtYSmxucx9Gz2Tn0nrr-18" vertex="1" connectable="0">
                    <mxGeometry x="-0.2394" y="-3" relative="1" as="geometry">
                        <mxPoint x="18" y="-3" as="offset"/>
                    </mxGeometry>
                </mxCell>
                <mxCell id="YUtYSmxucx9Gz2Tn0nrr-9" value="Amazon SNS" style="sketch=0;points=[[0,0,0],[0.25,0,0],[0.5,0,0],[0.75,0,0],[1,0,0],[0,1,0],[0.25,1,0],[0.5,1,0],[0.75,1,0],[1,1,0],[0,0.25,0],[0,0.5,0],[0,0.75,0],[1,0.25,0],[1,0.5,0],[1,0.75,0]];outlineConnect=0;fontColor=#232F3E;gradientColor=#FF4F8B;gradientDirection=north;fillColor=#BC1356;strokeColor=#ffffff;dashed=0;verticalLabelPosition=bottom;verticalAlign=top;align=center;html=1;fontSize=12;fontStyle=0;aspect=fixed;shape=mxgraph.aws4.resourceIcon;resIcon=mxgraph.aws4.sns;" parent="1" vertex="1">
                    <mxGeometry x="800" y="210" width="78" height="78" as="geometry"/>
                </mxCell>
                <mxCell id="YUtYSmxucx9Gz2Tn0nrr-17" value="" style="sketch=0;outlineConnect=0;fontColor=#232F3E;gradientColor=none;fillColor=#232F3D;strokeColor=none;dashed=0;verticalLabelPosition=bottom;verticalAlign=top;align=center;html=1;fontSize=12;fontStyle=0;aspect=fixed;pointerEvents=1;shape=mxgraph.aws4.email_2;" parent="1" vertex="1">
                    <mxGeometry x="1020" y="224.5" width="78" height="49" as="geometry"/>
                </mxCell>
            </root>
        </mxGraphModel>
    </diagram>
</mxfile>